<?xml version="1.0" encoding="utf-8"?>
<!-- Generator: Adobe Illustrator 27.0.0, SVG Export Plug-In . SVG Version: 6.00 Build 0)  -->
<svg version="1.1" id="Layer_1" xmlns="http://www.w3.org/2000/svg" xmlns:xlink="http://www.w3.org/1999/xlink" x="0px" y="0px"
	 viewBox="0 0 800 800" style="enable-background:new 0 0 800 800;" xml:space="preserve">
<style type="text/css">
	.st0{fill:#D0D1D8;stroke:#A9ABB3;stroke-width:35.2034;stroke-miterlimit:125;}
	.st1{fill:#5F6065;stroke:#A9ABB3;stroke-width:35.2034;stroke-linecap:round;stroke-miterlimit:125;}
	.st2{fill:#E5E5E5;}
</style>
<g>
	<polygon class="st0" points="616.4,758 183.4,758 120.7,589.7 679.1,589.7 	"/>
	<path class="st0" d="M410.8,67.2L410.8,67.2c144.6-0.1,261.8,117,261.9,261.6c0,0.3,0,0.6,0,0.9v169.5l0,0H149.1l0,0V329.6
		C148.7,185,265.6,67.5,410.1,67.2C410.4,67.2,410.6,67.2,410.8,67.2z"/>
	<path class="st0" d="M96.8,496.1h606.4c18.5,0,33.4,15,33.4,33.4v27.8c0,18.5-15,33.4-33.4,33.4H96.8c-18.5,0-33.4-15-33.4-33.4
		v-27.8C63.4,511.1,78.3,496.1,96.8,496.1z"/>
	<line class="st1" x1="306.4" y1="133.2" x2="233.8" y2="67.2"/>
	<line class="st1" x1="485.6" y1="114.3" x2="565" y2="42"/>
	<line class="st1" x1="200.8" y1="221.2" x2="128.1" y2="155.2"/>
	<line class="st1" x1="165.6" y1="397.2" x2="92.9" y2="331.2"/>
	<line class="st1" x1="628.4" y1="241.8" x2="679.6" y2="149.9"/>
	<line class="st1" x1="632.6" y1="424.8" x2="710.6" y2="354.2"/>
	<circle class="st2" cx="501.1" cy="230" r="30.8"/>
	<circle class="st2" cx="430.7" cy="318" r="30.8"/>
	<circle class="st2" cx="272.3" cy="247.6" r="30.8"/>
	<circle class="st2" cx="501.1" cy="406" r="30.8"/>
	<circle class="st2" cx="289.9" cy="388.4" r="30.8"/>
</g>
</svg>
