<svg xmlns="http://www.w3.org/2000/svg" width="512" height="512" fill="none" viewBox="0 0 15.36 15.36"><path d="M11.797 5.78 8.938 7.915a2.11 2.11 0 0 1-2.516 0L3.564 5.78v4.51c0 .254.188.443.449.443h7.335c.26 0 .45-.189.45-.443z" style="display:inline;fill:#000;fill-opacity:1;stroke-width:.09;stroke-linecap:round;stroke-linejoin:round;stroke-opacity:.677103"/><path d="M3.82 4.666 7.052 7.08c.374.28.882.28 1.256 0l3.232-2.413a.5.5 0 0 0-.192-.039H4.012a.5.5 0 0 0-.193.04" style="display:inline;fill:#000;fill-opacity:1;stroke-width:.09;stroke-linecap:round;stroke-linejoin:round;stroke-opacity:.677103"/><path d="M7.68 0A7.68 7.68 0 0 0 0 7.68a7.68 7.68 0 0 0 7.68 7.68 7.68 7.68 0 0 0 7.68-7.68A7.68 7.68 0 0 0 7.68 0M4.012 3.427h7.336c.901 0 1.649.742 1.649 1.643v5.22c0 .901-.748 1.643-1.65 1.643H4.013a1.656 1.656 0 0 1-1.649-1.643V5.07c0-.901.748-1.643 1.65-1.643" style="fill:#000;stroke-width:.09;stroke-linecap:round;stroke-linejoin:round"/></svg>