<svg xmlns="http://www.w3.org/2000/svg" width="512" height="512" fill="none" viewBox="0 0 512 512"><g clip-path="url(#a)" style="stroke-width:.191406" transform="translate(0 8.03)scale(5.22449)"><path fill="currentColor" d="M41.44 69.385C28.807 67.853 19.906 58.762 19.906 46.99c0-4.785 1.723-9.953 4.594-13.398-1.244-3.158-1.053-9.858.383-12.633 3.828-.478 8.996 1.531 12.058 4.307 3.637-1.149 7.465-1.723 12.155-1.723s8.517.574 11.963 1.627c2.966-2.68 8.23-4.69 12.058-4.211 1.34 2.584 1.531 9.283.287 12.537 3.063 3.637 4.69 8.518 4.69 13.494 0 11.772-8.9 20.672-21.725 22.3 3.254 2.104 5.455 6.698 5.455 11.962v9.953c0 2.871 2.393 4.498 5.264 3.35C84.41 87.95 98 70.629 98 49.19 98 22.107 75.988 0 48.904 0S0 22.107 0 49.191c0 21.246 13.494 38.856 31.678 45.46 2.584.956 5.072-.766 5.072-3.35v-7.656c-1.34.574-3.062.957-4.594.957-6.316 0-10.049-3.446-12.728-9.858-1.053-2.584-2.201-4.115-4.403-4.402-1.148-.096-1.53-.574-1.53-1.149 0-1.148 1.913-2.01 3.827-2.01 2.776 0 5.168 1.723 7.656 5.264 1.915 2.776 3.924 4.02 6.317 4.02 2.392 0 3.924-.861 6.125-3.063 1.627-1.627 2.871-3.062 4.02-4.02" style="stroke-width:.191406"/></g><defs><clipPath id="a"><path fill="#fff" d="M0 0h98v96H0z"/></clipPath></defs></svg>