<svg xmlns="http://www.w3.org/2000/svg" xml:space="preserve" width="512" height="512" viewBox="0 0 20.48 20.48"><path d="M10.24 7.973c-1.317 0-2.34 1.097-2.34 2.34 0 1.317 1.097 2.34 2.34 2.34a2.31 2.31 0 0 0 2.34-2.34c0-1.316-1.097-2.34-2.34-2.34" style="fill:#000;stroke-width:.12;stroke-linecap:round;stroke-linejoin:round;fill-opacity:1"/><path d="M7.314 4.315c-1.609 0-2.999 1.317-2.999 3v5.85c0 1.61 1.317 3 3 3h5.85c1.61 0 3-1.317 3-3v-5.85c0-1.61-1.317-3-3-3zm6.803 1.317c.438 0 .804.366.877.878 0 .512-.365.877-.877.877s-.878-.365-.878-.877a.89.89 0 0 1 .878-.878M10.24 6.729c2.048 0 3.657 1.61 3.584 3.584a3.59 3.59 0 0 1-3.584 3.584 3.59 3.59 0 0 1-3.584-3.584A3.59 3.59 0 0 1 10.24 6.73" style="fill:#000;stroke-width:.12;stroke-linecap:round;stroke-linejoin:round;fill-opacity:1"/><path d="M10.24 0A10.24 10.24 0 0 0 0 10.24a10.24 10.24 0 0 0 10.24 10.24 10.24 10.24 0 0 0 10.24-10.24A10.24 10.24 0 0 0 10.24 0M7.314 2.926h5.852a4.4 4.4 0 0 1 4.388 4.388v5.852a4.4 4.4 0 0 1-4.388 4.388H7.314a4.4 4.4 0 0 1-4.388-4.388V7.314a4.4 4.4 0 0 1 4.388-4.388" style="fill:#000;stroke-width:.12;stroke-linecap:round;stroke-linejoin:round;fill-opacity:1"/></svg>