<svg xmlns="http://www.w3.org/2000/svg" width="512" height="512" fill="currentColor" class="mercado-match" data-supported-dps="24x24" viewBox="0 0 512 512"><path d="M256 0a256 256 0 0 0-112.41 26A256 256 0 0 0 26 143.59 256 256 0 0 0 0 256a256 256 0 0 0 26 112.41A256 256 0 0 0 143.59 486 256 256 0 0 0 256 512a256 256 0 0 0 112.41-26A256 256 0 0 0 486 368.41 256 256 0 0 0 512 256a256 256 0 0 0-26-112.41A256 256 0 0 0 368.41 26 256 256 0 0 0 256 0M132.87 89.328A40.25 40.25 0 0 1 170.9 129.5a40.94 40.94 0 0 1-41.4 40.25 40.25 40.25 0 1 1 3.37-80.422M338.8 207.7c35.65 0 77.28 19.782 77.28 84.182L417 417h-69V307.98c0-32.66-13.8-44.39-31.74-44.39A40.02 40.02 0 0 0 279 306.37a15.2 15.2 0 0 0 0 3.22V417h-69V210h66.7v29.9a71.53 71.53 0 0 1 62.1-32.2M95 210h69v207H95Z" style="fill:#000;stroke-width:3;stroke-linecap:round;stroke-linejoin:round;stroke:none;fill-opacity:1"/></svg>