<?xml version="1.0" encoding="utf-8"?>
<!-- Generator: Adobe Illustrator 27.0.0, SVG Export Plug-In . SVG Version: 6.00 Build 0)  -->
<svg version="1.1" id="logo" xmlns="http://www.w3.org/2000/svg" xmlns:xlink="http://www.w3.org/1999/xlink" x="0px" y="0px"
	 viewBox="0 0 2000 2000" style="enable-background:new 0 0 2000 2000;" xml:space="preserve">
<style type="text/css">
	.st0{fill:#FFFFFF;}
</style>
<path class="st0" d="M1882.1,1828.2h-219.8c-15.3,0-29.4-8.2-37.1-21.4l-306.4-530.7l-159.4-276l-122.3-211.8
	c-16.5-28.6-57.7-28.6-74.2,0L840.6,1000l-159.4,276l-306.4,530.7c-7.6,13.3-21.8,21.4-37.1,21.4H117.9c-33,0-53.6-35.7-37.1-64.3
	l281.7-487.8l147-254.6c7.6-13.3,7.6-29.6,0-42.8L362.5,724L203.1,447.9L80.8,236.1c-16.5-28.6,4.1-64.3,37.1-64.3h219.8
	c15.3,0,29.5,8.2,37.1,21.4l147,254.6l122.3,211.8c16.5,28.6,57.7,28.6,74.2,0l122.3-211.8l122.3-211.8c16.5-28.6,57.7-28.6,74.2,0
	l122.3,211.8L1318.8,724l159.4,276.1l159.4,276l281.7,487.8C1935.7,1792.5,1915.1,1828.2,1882.1,1828.2L1882.1,1828.2z"/>
</svg>
