<svg xmlns="http://www.w3.org/2000/svg" xml:space="preserve" viewBox="0 0 2000 2000"><path d="M1882.1 1828.2h-219.8c-15.3 0-29.4-8.2-37.1-21.4l-306.4-530.7-159.4-276-122.3-211.8c-16.5-28.6-57.7-28.6-74.2 0L840.6 1000l-159.4 276-306.4 530.7c-7.6 13.3-21.8 21.4-37.1 21.4H117.9c-33 0-53.6-35.7-37.1-64.3L362.5 1276l147-254.6c7.6-13.3 7.6-29.6 0-42.8L362.5 724 203.1 447.9 80.8 236.1c-16.5-28.6 4.1-64.3 37.1-64.3h219.8c15.3 0 29.5 8.2 37.1 21.4l147 254.6 122.3 211.8c16.5 28.6 57.7 28.6 74.2 0l122.3-211.8L962.9 236c16.5-28.6 57.7-28.6 74.2 0l122.3 211.8L1318.8 724l159.4 276.1 159.4 276 281.7 487.8c16.4 28.6-4.2 64.3-37.2 64.3" style="fill:#fff"/></svg>