<svg xmlns="http://www.w3.org/2000/svg" width="512" height="512" viewBox="0 0 96 96"><path d="M48 0A48 48 0 0 0 0 48a48 48 0 0 0 48 48 48 48 0 0 0 48-48A48 48 0 0 0 48 0m28.459 21.751c1.56-.034 3.285.605 3.012 3.71-.162 2.272-1.619 10.225-2.752 18.828l-3.885 25.485s-.324 3.733-3.238 4.383-7.285-2.273-8.094-2.922c-.648-.487-12.142-7.792-16.19-11.363-1.133-.974-2.428-2.922.163-5.194l16.998-16.232c1.943-1.948 3.885-6.493-4.21-.974L35.6 52.892s-2.59 1.624-7.447.163L17.63 49.808s-3.885-2.435 2.752-4.87c16.189-7.629 36.101-15.42 53.747-22.724 0 0 1.115-.435 2.33-.463" style="stroke-width:.5625;stroke-linecap:round;stroke-linejoin:round"/></svg>